<svg width="800" height="400" xmlns="http://www.w3.org/2000/svg">
  <defs>
    <linearGradient id="hoennGradient" x1="0%" y1="0%" x2="100%" y2="100%">
      <stop offset="0%" style="stop-color:#1E90FF;stop-opacity:1" />
      <stop offset="50%" style="stop-color:#4169E1;stop-opacity:1" />
      <stop offset="100%" style="stop-color:#0066CC;stop-opacity:1" />
    </linearGradient>
  </defs>
  
  <rect width="100%" height="100%" fill="url(#hoennGradient)"/>
  
  <!-- Vagues océaniques -->
  <path d="M0,300 Q200,280 400,300 T800,300 L800,400 L0,400 Z" fill="rgba(255,255,255,0.1)"/>
  <path d="M0,320 Q150,300 300,320 T600,320 T800,330 L800,400 L0,400 Z" fill="rgba(255,255,255,0.05)"/>
  
  <!-- Îles volcanique stylisée -->
  <ellipse cx="200" cy="250" rx="80" ry="40" fill="rgba(255,255,255,0.2)"/>
  <polygon points="190,230 210,230 200,200" fill="rgba(255,255,255,0.3)"/>
  <ellipse cx="600" cy="280" rx="60" ry="30" fill="rgba(255,255,255,0.15)"/>
  
  <!-- Symboles marins -->
  <circle cx="500" cy="150" r="30" fill="rgba(255,255,255,0.2)" stroke="rgba(255,255,255,0.3)" stroke-width="2"/>
  <path d="M485,150 Q500,135 515,150 Q500,165 485,150" fill="rgba(255,255,255,0.3)"/>
  
  <!-- Texte Hoenn -->
  <text x="400" y="350" text-anchor="middle" font-family="Arial Black, sans-serif" font-size="72" font-weight="bold" fill="rgba(255,255,255,0.9)">HOENN</text>
  <text x="400" y="380" text-anchor="middle" font-family="Arial, sans-serif" font-size="24" fill="rgba(255,255,255,0.7)">Terre et océan</text>
</svg>
