<svg width="800" height="400" xmlns="http://www.w3.org/2000/svg">
  <defs>
    <linearGradient id="unysGradient" x1="0%" y1="0%" x2="100%" y2="100%">
      <stop offset="0%" style="stop-color:#2F2F2F;stop-opacity:1" />
      <stop offset="50%" style="stop-color:#4A4A4A;stop-opacity:1" />
      <stop offset="100%" style="stop-color:#666666;stop-opacity:1" />
    </linearGradient>
  </defs>
  
  <rect width="100%" height="100%" fill="url(#unysGradient)"/>
  
  <!-- Gratte-ciels modernes -->
  <rect x="100" y="150" width="40" height="250" fill="rgba(255,255,255,0.2)"/>
  <rect x="160" y="100" width="50" height="300" fill="rgba(255,255,255,0.25)"/>
  <rect x="230" y="180" width="35" height="220" fill="rgba(255,255,255,0.15)"/>
  <rect x="600" y="120" width="45" height="280" fill="rgba(255,255,255,0.2)"/>
  <rect x="660" y="160" width="40" height="240" fill="rgba(255,255,255,0.18)"/>
  <rect x="720" y="90" width="60" height="310" fill="rgba(255,255,255,0.22)"/>
  
  <!-- Fenêtres illuminées -->
  <rect x="110" y="160" width="8" height="8" fill="rgba(255,255,0,0.6)"/>
  <rect x="125" y="180" width="8" height="8" fill="rgba(255,255,0,0.6)"/>
  <rect x="170" y="120" width="10" height="10" fill="rgba(255,255,0,0.7)"/>
  <rect x="190" y="140" width="10" height="10" fill="rgba(255,255,0,0.7)"/>
  <rect x="610" y="140" width="8" height="8" fill="rgba(255,255,0,0.6)"/>
  <rect x="630" y="160" width="8" height="8" fill="rgba(255,255,0,0.6)"/>
  
  <!-- Pont stylisé -->
  <rect x="300" y="280" width="200" height="15" fill="rgba(255,255,255,0.3)"/>
  <rect x="320" y="200" width="8" height="80" fill="rgba(255,255,255,0.25)"/>
  <rect x="380" y="200" width="8" height="80" fill="rgba(255,255,255,0.25)"/>
  <rect x="440" y="200" width="8" height="80" fill="rgba(255,255,255,0.25)"/>
  <rect x="480" y="200" width="8" height="80" fill="rgba(255,255,255,0.25)"/>
  
  <!-- Texte Unys -->
  <text x="400" y="350" text-anchor="middle" font-family="Arial Black, sans-serif" font-size="72" font-weight="bold" fill="rgba(255,255,255,0.9)">UNYS</text>
  <text x="400" y="380" text-anchor="middle" font-family="Arial, sans-serif" font-size="24" fill="rgba(255,255,255,0.7)">Métropole moderne</text>
</svg>
